# xmcd
# 
# Track frame offsets:
#     150
#     17828
#     36813
#     60058
#     79330
#     96385
#     112275
#     128345
#     155225
#     171235
#     189970
#     212523
# 
# Disc length: 3084
# 
# Revision: 0
# Processed by: cddbd v1.5.2PL0 Copyright (c) Steve Scherf et al.
# Submitted via: fre:ac v1.0.17
# 
DISCID=9b0c0a0c
DTITLE=Jonny Lang - Lie to Me
DYEAR=1997
DGENRE=Blues
TTITLE0=Missing Your Love
TTITLE1=Lie To Me
TTITLE2=Darker Side
TTITLE3=Good Morning Little School Girl
TTITLE4=Still Wonder
TTITLE5=Matchbox
TTITLE6=Back For A Taste Of Your Love
TTITLE7=A Quitter Never Wins
TTITLE8=Hit The Ground Running
TTITLE9=Rack 'Em Up
TTITLE10=When I Come To You
TTITLE11=There's Gotta Be A Change
EXTD=
EXTT0=
EXTT1=
EXTT2=
EXTT3=
EXTT4=
EXTT5=
EXTT6=
EXTT7=
EXTT8=
EXTT9=
EXTT10=
EXTT11=
PLAYORDER=
